<svg class="meta-icon-container" xmlns="http://www.w3.org/2000/svg" xmlns:xlink="http://www.w3.org/1999/xlink" version="1" id="Capa_1" x="0px" y="0px" width="30px" height="30px" viewBox="0 0 488 488" style="enable-background:new 0 0 488 488;" xml:space="preserve">
<g>
	<g>
		<path d="M178,269c0-6-5-11-11-11h-39c-6,0-11,5-11,11v39    c0,6,5,11,11,11h39c6,0,11-5,11-11V269L178,269z" fill="#0dbae8"/>
		<path d="M274,269c0-6-5-11-11-11h-39c-6,0-11,5-11,11v39    c0,6,5,11,11,11h39c6,0,11-5,11-11V269z" fill="#0dbae8"/>
		<path d="M371,269c0-6-5-11-11-11h-39c-6,0-11,5-11,11v39    c0,6,5,11,11,11h39c6,0,11-5,11-11V269z" fill="#0dbae8"/>
		<path d="M178,366c0-6-5-11-11-11h-39c-6,0-11,5-11,11v39    c0,6,5,11,11,11h39c6,0,11-5,11-11V366L178,366z" fill="#0dbae8"/>
		<path d="M274,366c0-6-5-11-11-11h-39c-6,0-11,5-11,11v39    c0,6,5,11,11,11h39c6,0,11-5,11-11V366z" fill="#0dbae8"/>
		<path d="M371,366c0-6-5-11-11-11h-39c-6,0-11,5-11,11v39    c0,6,5,11,11,11h39c6,0,11-5,11-11V366L371,366z" fill="#0dbae8"/>
		<path d="M440,54v59c0,27-22,48-48,48h-30c-27,0-49-22-49-48V54    h-137v59c0,27-22,48-49,48H96c-27,0-48-22-48-48v-59    C25,55,5,74,5,98v346c0,24,20,44,44,44h390    c24,0,44-20,44-44V98C483,74,464,55,440,54z M426,423    c0,10-8,19-19,19H80c-10,0-19-8-19-19V244c0-10,8-19,19-19    h327c10,0,19,8,19,19L426,423L426,423z" fill="#0dbae8"/>
		<path d="M96,130h30c9,0,17-7,17-17V17C143,7,135,0,126,0H96    C87,0,80,7,80,17v97C80,123,87,130,96,130z" fill="#0dbae8"/>
		<path d="M361,130h30c9,0,17-7,17-17V17C408,7,400,0,391,0h-30    c-9,0-17,7-17,17v97C344,123,352,130,361,130z" fill="#0dbae8"/>
	</g>
</g>
<g>
</g>
<g>
</g>
<g>
</g>
<g>
</g>
<g>
</g>
<g>
</g>
<g>
</g>
<g>
</g>
<g>
</g>
<g>
</g>
<g>
</g>
<g>
</g>
<g>
</g>
<g>
</g>
<g>
</g>
</svg>